<?xml version="1.0" encoding="utf-8"?>
<!-- Generator: Adobe Illustrator 25.4.1, SVG Export Plug-In . SVG Version: 6.00 Build 0)  -->
<svg version="1.1" id="Layer_1" xmlns="http://www.w3.org/2000/svg" xmlns:xlink="http://www.w3.org/1999/xlink" x="0px" y="0px"
	 viewBox="0 0 424 61.5" style="enable-background:new 0 0 424 61.5;" xml:space="preserve">
<style type="text/css">
	.st0{fill:#F47E3A;}
</style>
<g>
	<circle class="st0" cx="361.3" cy="39.3" r="3.1"/>
	<path class="st0" d="M379.2,38.6c-0.9,0.6-2,0.9-3.1,0.9c-1.2,0-2.2-0.4-3-1.1s-1.1-1.7-1.1-3c0-1.3,0.4-2.3,1.1-3
		c0.7-0.7,1.7-1.1,2.9-1.1c0.7,0,1.3,0.1,1.9,0.3c0.6,0.2,1.1,0.5,1.5,0.9l0.1,0.1l0.1-0.1c0.3-0.2,0.6-0.5,0.8-0.8
		c0.2-0.3,0.3-0.6,0.3-0.9c0-0.4-0.2-0.8-0.6-1.2c-0.4-0.4-1-0.6-1.7-0.8c-0.7-0.2-1.5-0.3-2.4-0.3c-1.5,0-2.8,0.3-3.9,0.9
		c-1.1,0.6-2,1.4-2.5,2.5c-0.6,1-0.9,2.3-0.9,3.6c0,1.4,0.3,2.6,0.9,3.6s1.4,1.8,2.5,2.4s2.3,0.9,3.7,0.9c1.8,0,3.4-0.4,4.8-1.3
		l0.1-0.1l-1.4-2.5L379.2,38.6z"/>
	<path class="st0" d="M392.2,29.4c-1.1-0.6-2.3-0.9-3.7-0.9s-2.6,0.3-3.7,0.9c-1.1,0.6-2,1.5-2.6,2.5c-0.6,1-1,2.2-1,3.5
		s0.3,2.5,1,3.5s1.5,1.9,2.6,2.5c1.1,0.6,2.3,0.9,3.7,0.9s2.6-0.3,3.7-0.9c1.1-0.6,2-1.5,2.6-2.5c0.6-1,1-2.2,1-3.5s-0.3-2.5-1-3.5
		C394.2,30.9,393.3,30,392.2,29.4z M391.9,37.5c-0.3,0.6-0.8,1.1-1.4,1.4c-0.6,0.3-1.2,0.5-2,0.5c-0.7,0-1.4-0.2-2-0.5
		c-0.6-0.3-1-0.8-1.4-1.4c-0.3-0.6-0.5-1.3-0.5-2.1c0-0.8,0.2-1.5,0.5-2.1c0.3-0.6,0.8-1.1,1.4-1.4c0.6-0.3,1.2-0.5,2-0.5
		s1.4,0.2,2,0.5c0.6,0.3,1,0.8,1.4,1.4c0.3,0.6,0.5,1.3,0.5,2.1C392.4,36.2,392.2,36.9,391.9,37.5z"/>
	<path class="st0" d="M418.3,31c-0.5-0.8-1.2-1.4-2-1.8c-0.9-0.4-1.9-0.6-3-0.6c-2.1,0-3.7,0.7-4.8,2.2c-1-1.5-2.7-2.2-4.8-2.2
		c-1.2,0-2.2,0.2-3,0.6c-0.9,0.4-1.6,1-2,1.8s-0.7,1.7-0.7,2.7v8.5h3.3v-7.5c0-1,0.2-1.8,0.7-2.4s1.2-0.8,2.1-0.8
		c1,0,1.7,0.3,2.2,0.9c0.5,0.6,0.7,1.5,0.7,2.5v7.2h3.3v-7.2c0-1.1,0.3-2,0.8-2.5c0.5-0.6,1.2-0.9,2.2-0.9c0.9,0,1.6,0.2,2,0.8
		c0.5,0.5,0.7,1.3,0.7,2.4v7.5h3.3v-8.5C419,32.7,418.8,31.8,418.3,31z"/>
	<path class="st0" d="M51.7,13.2c-8.1,0-14.7,6.6-14.7,14.7s6.6,14.7,14.7,14.7S66.3,36,66.3,27.9C66.3,19.8,59.8,13.2,51.7,13.2z
		 M51.7,36.2c-4.6,0-8.3-3.7-8.3-8.3s3.7-8.3,8.3-8.3c4.6,0,8.3,3.7,8.3,8.3C60,32.5,56.2,36.2,51.7,36.2z"/>
	<path class="st0" d="M83.1,13.2c-8.1,0-14.7,6.6-14.7,14.7S75,42.6,83.1,42.6S97.8,36,97.8,27.9C97.8,19.8,91.2,13.2,83.1,13.2z
		 M83.1,36.2c-4.6,0-8.3-3.7-8.3-8.3s3.7-8.3,8.3-8.3s8.3,3.7,8.3,8.3C91.4,32.5,87.7,36.2,83.1,36.2z"/>
	<path class="st0" d="M200.9,13.2c-8.1,0-14.7,6.6-14.7,14.7s6.6,14.7,14.7,14.7s14.7-6.6,14.7-14.7C215.6,19.8,209,13.2,200.9,13.2
		z M200.9,36.2c-4.6,0-8.3-3.7-8.3-8.3s3.7-8.3,8.3-8.3s8.3,3.7,8.3,8.3C209.2,32.5,205.5,36.2,200.9,36.2z"/>
	<path class="st0" d="M239.7,14c-1.4-0.8-3.5-1.2-6.1-1.2c-3.9,0-6.9,1-9.1,3c-2.2,2-3.3,4.8-3.3,8.3v18.1h7.2V26
		c0-4.5,2-6.6,6.2-6.6c2,0,3.8,0.4,5.4,1.2l0.2,0.1l0.2-0.1c0.4-0.2,0.7-0.7,1.1-1.3c0.4-0.6,0.5-1.3,0.5-2
		C242,15.9,241.2,14.9,239.7,14z"/>
	<path class="st0" d="M266.2,14.4c-2.1-1-4.6-1.5-7.4-1.5c-2.8,0-5.3,0.5-7.4,1.5c-2.1,1-3.8,2.5-5,4.4c-1.2,1.9-1.8,4.1-1.8,6.5
		v16.9h7.2V26.9c0-5,2.3-7.5,7-7.5c2.3,0,4,0.6,5.2,1.9c1.2,1.3,1.8,3.1,1.8,5.6v15.3h7.2V25.3c0-2.5-0.6-4.7-1.8-6.5
		C270,16.9,268.3,15.4,266.2,14.4z"/>
	<path class="st0" d="M284.6,13.4c-1.8-0.4-3.4-0.2-4.4,0.7c-0.7,0.6-1.1,1.4-1.1,2.5v25.7h7.2V14l-0.2-0.1
		C285.7,13.6,285.2,13.5,284.6,13.4z"/>
	<path class="st0" d="M314.1,14.4c-2.1-1-4.6-1.5-7.4-1.5c-2.8,0-5.3,0.5-7.4,1.5c-2.1,1-3.8,2.5-5,4.4c-1.2,1.9-1.8,4.1-1.8,6.5
		v16.9h7.2V26.9c0-5,2.3-7.5,7-7.5c2.3,0,4,0.6,5.2,1.9c1.2,1.3,1.8,3.1,1.8,5.6v15.3h7.2V25.3c0-2.5-0.6-4.7-1.8-6.5
		C317.9,16.9,316.2,15.4,314.1,14.4z"/>
	<circle class="st0" cx="282.7" cy="3.6" r="3.6"/>
	<path class="st0" d="M19.6,13.2C11.5,13.2,5,19.8,5,27.9s6.6,14.7,14.7,14.7c3,0,5.9-0.9,8.2-2.5v0.3v3.5c0,6.3-5.1,11.4-11.4,11.4
		c-1.7,0-3.3-0.4-4.8-1.1c-1.4-0.7-3.1-0.3-4.2,0.8L5,57.3c3.1,2.6,7.1,4.2,11.4,4.2l0,0c0,0,0,0,0,0s0,0,0,0l0,0
		c9.8,0,17.8-8,17.8-17.8V28.1c0,0,0,0,0,0c0-0.1,0-0.1,0-0.2C34.3,19.8,27.7,13.2,19.6,13.2z M19.6,36.2c-4.6,0-8.3-3.7-8.3-8.3
		s3.7-8.3,8.3-8.3c4.6,0,8.3,3.7,8.3,8.3C27.9,32.5,24.2,36.2,19.6,36.2z"/>
	<path class="st0" d="M126.5,0c-2.1-0.2-3.9,1.4-3.9,3.5v11.9v0.3c-2.4-1.6-5.2-2.6-8.2-2.6c-8.1,0-14.6,6.6-14.6,14.7
		s6.5,14.7,14.6,14.7c8.1,0,14.6-6.6,14.6-14.7l0,0l0,0V1C129,1,128.4,0.2,126.5,0z M114.4,36.2c-4.6,0-8.3-3.7-8.3-8.3
		s3.7-8.3,8.3-8.3s8.3,3.7,8.3,8.3S118.9,36.2,114.4,36.2z"/>
	<path class="st0" d="M174.8,14.2c-1.9-0.9-4.1-1.4-6.6-1.4c-4.7,0-8.2,1.6-10.5,4.9c-2.3-3.2-5.9-4.9-10.7-4.9
		c-2.5,0-4.8,0.5-6.7,1.4c-1.9,0.9-3.4,2.2-4.5,3.9c-1.1,1.7-1.6,3.7-1.6,6v18.1h7.2V26.4c0-2.3,0.5-4,1.6-5.2
		c1.1-1.2,2.6-1.8,4.6-1.8c2.1,0,3.7,0.6,4.8,1.9c1.1,1.3,1.6,3.2,1.6,5.6v15.2h7.2V27c0-2.4,0.6-4.3,1.7-5.6
		c1.1-1.3,2.7-1.9,4.8-1.9c2,0,3.5,0.6,4.5,1.7c1,1.1,1.5,2.9,1.5,5.2v15.9h7.2V24.1c0-2.3-0.5-4.3-1.6-6
		C178.2,16.5,176.7,15.1,174.8,14.2z"/>
	<path class="st0" d="M339.3,13.2c-8.1,0-14.7,6.6-14.7,14.7s6.6,14.7,14.7,14.7c3,0,5.9-0.9,8.2-2.5v0.3v3.5
		c0,6.3-5.1,11.4-11.4,11.4c-1.7,0-3.3-0.4-4.8-1.1c-1.4-0.7-3.1-0.3-4.2,0.8l-2.4,2.4c3.1,2.6,7.1,4.2,11.4,4.2l0,0c0,0,0,0,0,0
		s0,0,0,0l0,0c9.8,0,17.8-8,17.8-17.8V28.1c0,0,0,0,0,0c0-0.1,0-0.1,0-0.2C354,19.8,347.4,13.2,339.3,13.2z M339.3,36.2
		c-4.6,0-8.3-3.7-8.3-8.3s3.7-8.3,8.3-8.3s8.3,3.7,8.3,8.3C347.6,32.5,343.9,36.2,339.3,36.2z"/>
</g>
</svg>
